<mxfile host="Electron" agent="Mozilla/5.0 (Windows NT 10.0; Win64; x64) AppleWebKit/537.36 (KHTML, like Gecko) draw.io/26.2.15 Chrome/134.0.6998.205 Electron/35.2.1 Safari/537.36" version="26.2.15">
  <diagram name="페이지-1" id="5vaZl857eHV8DT2t6NjJ">
    <mxGraphModel dx="3679" dy="1682" grid="1" gridSize="10" guides="1" tooltips="1" connect="1" arrows="1" fold="1" page="1" pageScale="1" pageWidth="827" pageHeight="1169" math="0" shadow="0">
      <root>
        <mxCell id="0" />
        <mxCell id="1" parent="0" />
        <mxCell id="_qgD7AP_xgWN6C1ZgPw8-4" value="DB" style="shape=cylinder3;whiteSpace=wrap;html=1;boundedLbl=1;backgroundOutline=1;size=15;" vertex="1" parent="1">
          <mxGeometry x="510" y="290" width="60" height="80" as="geometry" />
        </mxCell>
        <mxCell id="_qgD7AP_xgWN6C1ZgPw8-5" value="" style="rounded=0;whiteSpace=wrap;html=1;" vertex="1" parent="1">
          <mxGeometry x="-20" y="160" width="450" height="250" as="geometry" />
        </mxCell>
        <mxCell id="_qgD7AP_xgWN6C1ZgPw8-6" value="Files" style="rounded=0;whiteSpace=wrap;html=1;" vertex="1" parent="1">
          <mxGeometry x="-220" y="300" width="120" height="60" as="geometry" />
        </mxCell>
        <mxCell id="_qgD7AP_xgWN6C1ZgPw8-13" value="FileJob" style="text;html=1;align=center;verticalAlign=middle;whiteSpace=wrap;rounded=0;" vertex="1" parent="1">
          <mxGeometry x="175" y="170" width="60" height="30" as="geometry" />
        </mxCell>
        <mxCell id="_qgD7AP_xgWN6C1ZgPw8-16" style="edgeStyle=orthogonalEdgeStyle;rounded=0;orthogonalLoop=1;jettySize=auto;html=1;entryX=0.5;entryY=0;entryDx=0;entryDy=0;" edge="1" parent="1" source="_qgD7AP_xgWN6C1ZgPw8-14" target="_qgD7AP_xgWN6C1ZgPw8-5">
          <mxGeometry relative="1" as="geometry" />
        </mxCell>
        <mxCell id="_qgD7AP_xgWN6C1ZgPw8-14" value="File Job&lt;div&gt;Scheduler&lt;/div&gt;" style="ellipse;whiteSpace=wrap;html=1;aspect=fixed;" vertex="1" parent="1">
          <mxGeometry x="165" y="20" width="80" height="80" as="geometry" />
        </mxCell>
        <mxCell id="_qgD7AP_xgWN6C1ZgPw8-17" value="" style="rounded=0;whiteSpace=wrap;html=1;" vertex="1" parent="1">
          <mxGeometry x="700" y="160" width="340" height="580" as="geometry" />
        </mxCell>
        <mxCell id="_qgD7AP_xgWN6C1ZgPw8-18" value="Api Job" style="text;html=1;align=center;verticalAlign=middle;whiteSpace=wrap;rounded=0;" vertex="1" parent="1">
          <mxGeometry x="855" y="170" width="60" height="30" as="geometry" />
        </mxCell>
        <mxCell id="_qgD7AP_xgWN6C1ZgPw8-20" style="edgeStyle=orthogonalEdgeStyle;rounded=0;orthogonalLoop=1;jettySize=auto;html=1;entryX=0.5;entryY=0;entryDx=0;entryDy=0;" edge="1" parent="1" source="_qgD7AP_xgWN6C1ZgPw8-19" target="_qgD7AP_xgWN6C1ZgPw8-17">
          <mxGeometry relative="1" as="geometry" />
        </mxCell>
        <mxCell id="_qgD7AP_xgWN6C1ZgPw8-19" value="Api Job&lt;div&gt;Scheduler&lt;/div&gt;" style="ellipse;whiteSpace=wrap;html=1;aspect=fixed;" vertex="1" parent="1">
          <mxGeometry x="855" y="20" width="80" height="80" as="geometry" />
        </mxCell>
        <mxCell id="_qgD7AP_xgWN6C1ZgPw8-34" value="API&lt;div&gt;Server&lt;/div&gt;" style="shape=cylinder3;whiteSpace=wrap;html=1;boundedLbl=1;backgroundOutline=1;size=15;" vertex="1" parent="1">
          <mxGeometry x="1060" y="812" width="60" height="80" as="geometry" />
        </mxCell>
        <mxCell id="_qgD7AP_xgWN6C1ZgPw8-36" value="" style="rounded=0;whiteSpace=wrap;html=1;" vertex="1" parent="1">
          <mxGeometry y="200" width="410" height="180" as="geometry" />
        </mxCell>
        <mxCell id="_qgD7AP_xgWN6C1ZgPw8-37" value="FileStep" style="text;html=1;align=center;verticalAlign=middle;whiteSpace=wrap;rounded=0;" vertex="1" parent="1">
          <mxGeometry x="180" y="230" width="60" height="30" as="geometry" />
        </mxCell>
        <mxCell id="_qgD7AP_xgWN6C1ZgPw8-42" style="edgeStyle=orthogonalEdgeStyle;rounded=0;orthogonalLoop=1;jettySize=auto;html=1;" edge="1" parent="1" source="_qgD7AP_xgWN6C1ZgPw8-40" target="_qgD7AP_xgWN6C1ZgPw8-6">
          <mxGeometry relative="1" as="geometry" />
        </mxCell>
        <mxCell id="_qgD7AP_xgWN6C1ZgPw8-44" style="edgeStyle=orthogonalEdgeStyle;rounded=0;orthogonalLoop=1;jettySize=auto;html=1;entryX=0;entryY=0.5;entryDx=0;entryDy=0;" edge="1" parent="1" source="_qgD7AP_xgWN6C1ZgPw8-40" target="_qgD7AP_xgWN6C1ZgPw8-41">
          <mxGeometry relative="1" as="geometry" />
        </mxCell>
        <mxCell id="_qgD7AP_xgWN6C1ZgPw8-40" value="ItemRead" style="rounded=0;whiteSpace=wrap;html=1;" vertex="1" parent="1">
          <mxGeometry x="40" y="300" width="120" height="60" as="geometry" />
        </mxCell>
        <mxCell id="_qgD7AP_xgWN6C1ZgPw8-41" value="ItemWriter" style="rounded=0;whiteSpace=wrap;html=1;" vertex="1" parent="1">
          <mxGeometry x="245" y="300" width="120" height="60" as="geometry" />
        </mxCell>
        <mxCell id="_qgD7AP_xgWN6C1ZgPw8-45" style="edgeStyle=orthogonalEdgeStyle;rounded=0;orthogonalLoop=1;jettySize=auto;html=1;entryX=0;entryY=0;entryDx=0;entryDy=52.5;entryPerimeter=0;" edge="1" parent="1" source="_qgD7AP_xgWN6C1ZgPw8-41" target="_qgD7AP_xgWN6C1ZgPw8-4">
          <mxGeometry relative="1" as="geometry" />
        </mxCell>
        <mxCell id="_qgD7AP_xgWN6C1ZgPw8-48" value="" style="rounded=0;whiteSpace=wrap;html=1;" vertex="1" parent="1">
          <mxGeometry x="770" y="207.5" width="220" height="140" as="geometry" />
        </mxCell>
        <mxCell id="_qgD7AP_xgWN6C1ZgPw8-49" value="ApiStep1" style="text;html=1;align=center;verticalAlign=middle;whiteSpace=wrap;rounded=0;" vertex="1" parent="1">
          <mxGeometry x="850" y="217.5" width="60" height="30" as="geometry" />
        </mxCell>
        <mxCell id="_qgD7AP_xgWN6C1ZgPw8-50" value="apiStratTasklet" style="rounded=0;whiteSpace=wrap;html=1;" vertex="1" parent="1">
          <mxGeometry x="820" y="257.5" width="120" height="60" as="geometry" />
        </mxCell>
        <mxCell id="_qgD7AP_xgWN6C1ZgPw8-51" value="" style="rounded=0;whiteSpace=wrap;html=1;" vertex="1" parent="1">
          <mxGeometry x="775" y="570" width="212" height="140" as="geometry" />
        </mxCell>
        <mxCell id="_qgD7AP_xgWN6C1ZgPw8-52" value="ApiStep2" style="text;html=1;align=center;verticalAlign=middle;whiteSpace=wrap;rounded=0;" vertex="1" parent="1">
          <mxGeometry x="855" y="580" width="52" height="30" as="geometry" />
        </mxCell>
        <mxCell id="_qgD7AP_xgWN6C1ZgPw8-53" value="apiEndTasklet" style="rounded=0;whiteSpace=wrap;html=1;" vertex="1" parent="1">
          <mxGeometry x="825" y="620" width="112" height="60" as="geometry" />
        </mxCell>
        <mxCell id="_qgD7AP_xgWN6C1ZgPw8-76" style="edgeStyle=orthogonalEdgeStyle;rounded=0;orthogonalLoop=1;jettySize=auto;html=1;entryX=0.5;entryY=0;entryDx=0;entryDy=0;" edge="1" parent="1" source="_qgD7AP_xgWN6C1ZgPw8-54" target="_qgD7AP_xgWN6C1ZgPw8-51">
          <mxGeometry relative="1" as="geometry" />
        </mxCell>
        <mxCell id="_qgD7AP_xgWN6C1ZgPw8-54" value="" style="rounded=0;whiteSpace=wrap;html=1;" vertex="1" parent="1">
          <mxGeometry x="770" y="388" width="220" height="140" as="geometry" />
        </mxCell>
        <mxCell id="_qgD7AP_xgWN6C1ZgPw8-55" value="jobStep" style="text;html=1;align=center;verticalAlign=middle;whiteSpace=wrap;rounded=0;" vertex="1" parent="1">
          <mxGeometry x="850" y="443" width="60" height="30" as="geometry" />
        </mxCell>
        <mxCell id="_qgD7AP_xgWN6C1ZgPw8-64" style="edgeStyle=orthogonalEdgeStyle;rounded=0;orthogonalLoop=1;jettySize=auto;html=1;entryX=0.5;entryY=0;entryDx=0;entryDy=0;" edge="1" parent="1" source="_qgD7AP_xgWN6C1ZgPw8-48" target="_qgD7AP_xgWN6C1ZgPw8-54">
          <mxGeometry relative="1" as="geometry" />
        </mxCell>
        <mxCell id="_qgD7AP_xgWN6C1ZgPw8-77" style="edgeStyle=orthogonalEdgeStyle;rounded=0;orthogonalLoop=1;jettySize=auto;html=1;entryX=1;entryY=0;entryDx=0;entryDy=52.5;entryPerimeter=0;" edge="1" parent="1" source="_qgD7AP_xgWN6C1ZgPw8-54" target="_qgD7AP_xgWN6C1ZgPw8-4">
          <mxGeometry relative="1" as="geometry" />
        </mxCell>
        <mxCell id="_qgD7AP_xgWN6C1ZgPw8-82" value="" style="rounded=0;whiteSpace=wrap;html=1;" vertex="1" parent="1">
          <mxGeometry x="1150" y="780" width="470" height="440" as="geometry" />
        </mxCell>
        <mxCell id="_qgD7AP_xgWN6C1ZgPw8-121" style="edgeStyle=orthogonalEdgeStyle;rounded=0;orthogonalLoop=1;jettySize=auto;html=1;" edge="1" parent="1" source="_qgD7AP_xgWN6C1ZgPw8-83" target="_qgD7AP_xgWN6C1ZgPw8-84">
          <mxGeometry relative="1" as="geometry" />
        </mxCell>
        <mxCell id="_qgD7AP_xgWN6C1ZgPw8-123" style="edgeStyle=orthogonalEdgeStyle;rounded=0;orthogonalLoop=1;jettySize=auto;html=1;" edge="1" parent="1" source="_qgD7AP_xgWN6C1ZgPw8-83" target="_qgD7AP_xgWN6C1ZgPw8-34">
          <mxGeometry relative="1" as="geometry" />
        </mxCell>
        <mxCell id="_qgD7AP_xgWN6C1ZgPw8-83" value="ItemRead" style="rounded=0;whiteSpace=wrap;html=1;" vertex="1" parent="1">
          <mxGeometry x="1330" y="822" width="120" height="60" as="geometry" />
        </mxCell>
        <mxCell id="_qgD7AP_xgWN6C1ZgPw8-122" style="edgeStyle=orthogonalEdgeStyle;rounded=0;orthogonalLoop=1;jettySize=auto;html=1;" edge="1" parent="1" source="_qgD7AP_xgWN6C1ZgPw8-84" target="_qgD7AP_xgWN6C1ZgPw8-85">
          <mxGeometry relative="1" as="geometry" />
        </mxCell>
        <mxCell id="_qgD7AP_xgWN6C1ZgPw8-84" value="ItemProcessor" style="rounded=0;whiteSpace=wrap;html=1;" vertex="1" parent="1">
          <mxGeometry x="1330" y="915" width="120" height="60" as="geometry" />
        </mxCell>
        <mxCell id="_qgD7AP_xgWN6C1ZgPw8-85" value="ItemWriter" style="rounded=0;whiteSpace=wrap;html=1;" vertex="1" parent="1">
          <mxGeometry x="1330" y="1015" width="120" height="60" as="geometry" />
        </mxCell>
        <mxCell id="_qgD7AP_xgWN6C1ZgPw8-86" value="File1" style="rounded=0;whiteSpace=wrap;html=1;" vertex="1" parent="1">
          <mxGeometry x="1185" y="1125" width="120" height="60" as="geometry" />
        </mxCell>
        <mxCell id="_qgD7AP_xgWN6C1ZgPw8-87" value="File1" style="rounded=0;whiteSpace=wrap;html=1;" vertex="1" parent="1">
          <mxGeometry x="1325" y="1125" width="120" height="60" as="geometry" />
        </mxCell>
        <mxCell id="_qgD7AP_xgWN6C1ZgPw8-88" value="File1" style="rounded=0;whiteSpace=wrap;html=1;" vertex="1" parent="1">
          <mxGeometry x="1475" y="1125" width="120" height="60" as="geometry" />
        </mxCell>
        <mxCell id="_qgD7AP_xgWN6C1ZgPw8-89" style="edgeStyle=orthogonalEdgeStyle;rounded=0;orthogonalLoop=1;jettySize=auto;html=1;entryX=0.417;entryY=0.083;entryDx=0;entryDy=0;entryPerimeter=0;exitX=0.5;exitY=1;exitDx=0;exitDy=0;" edge="1" parent="1" source="_qgD7AP_xgWN6C1ZgPw8-85" target="_qgD7AP_xgWN6C1ZgPw8-86">
          <mxGeometry relative="1" as="geometry" />
        </mxCell>
        <mxCell id="_qgD7AP_xgWN6C1ZgPw8-90" style="edgeStyle=orthogonalEdgeStyle;rounded=0;orthogonalLoop=1;jettySize=auto;html=1;entryX=0.5;entryY=0;entryDx=0;entryDy=0;" edge="1" parent="1" source="_qgD7AP_xgWN6C1ZgPw8-85" target="_qgD7AP_xgWN6C1ZgPw8-87">
          <mxGeometry relative="1" as="geometry" />
        </mxCell>
        <mxCell id="_qgD7AP_xgWN6C1ZgPw8-91" style="edgeStyle=orthogonalEdgeStyle;rounded=0;orthogonalLoop=1;jettySize=auto;html=1;entryX=0.5;entryY=0;entryDx=0;entryDy=0;exitX=0.5;exitY=1;exitDx=0;exitDy=0;" edge="1" parent="1" source="_qgD7AP_xgWN6C1ZgPw8-85" target="_qgD7AP_xgWN6C1ZgPw8-88">
          <mxGeometry relative="1" as="geometry" />
        </mxCell>
        <mxCell id="_qgD7AP_xgWN6C1ZgPw8-92" value="ApiSlaveStep" style="text;html=1;align=center;verticalAlign=middle;whiteSpace=wrap;rounded=0;" vertex="1" parent="1">
          <mxGeometry x="1185" y="789.5" width="120" height="30" as="geometry" />
        </mxCell>
        <mxCell id="_qgD7AP_xgWN6C1ZgPw8-104" value="" style="rounded=0;whiteSpace=wrap;html=1;" vertex="1" parent="1">
          <mxGeometry x="1120" y="170" width="540" height="560" as="geometry" />
        </mxCell>
        <mxCell id="_qgD7AP_xgWN6C1ZgPw8-105" value="" style="rounded=0;whiteSpace=wrap;html=1;" vertex="1" parent="1">
          <mxGeometry x="1160" y="238" width="470" height="440" as="geometry" />
        </mxCell>
        <mxCell id="_qgD7AP_xgWN6C1ZgPw8-106" value="childJob" style="text;html=1;align=center;verticalAlign=middle;whiteSpace=wrap;rounded=0;" vertex="1" parent="1">
          <mxGeometry x="1360" y="258" width="60" height="30" as="geometry" />
        </mxCell>
        <mxCell id="_qgD7AP_xgWN6C1ZgPw8-107" style="edgeStyle=orthogonalEdgeStyle;rounded=0;orthogonalLoop=1;jettySize=auto;html=1;" edge="1" parent="1" source="_qgD7AP_xgWN6C1ZgPw8-108" target="_qgD7AP_xgWN6C1ZgPw8-113">
          <mxGeometry relative="1" as="geometry" />
        </mxCell>
        <mxCell id="_qgD7AP_xgWN6C1ZgPw8-108" value="ApiMasterStep" style="rounded=0;whiteSpace=wrap;html=1;" vertex="1" parent="1">
          <mxGeometry x="1330" y="308" width="120" height="60" as="geometry" />
        </mxCell>
        <mxCell id="_qgD7AP_xgWN6C1ZgPw8-109" value="ApiSlaveStep" style="rounded=0;whiteSpace=wrap;html=1;" vertex="1" parent="1">
          <mxGeometry x="1330" y="610" width="120" height="60" as="geometry" />
        </mxCell>
        <mxCell id="_qgD7AP_xgWN6C1ZgPw8-110" style="edgeStyle=orthogonalEdgeStyle;rounded=0;orthogonalLoop=1;jettySize=auto;html=1;" edge="1" parent="1" source="_qgD7AP_xgWN6C1ZgPw8-113" target="_qgD7AP_xgWN6C1ZgPw8-117">
          <mxGeometry relative="1" as="geometry" />
        </mxCell>
        <mxCell id="_qgD7AP_xgWN6C1ZgPw8-111" style="edgeStyle=orthogonalEdgeStyle;rounded=0;orthogonalLoop=1;jettySize=auto;html=1;" edge="1" parent="1" source="_qgD7AP_xgWN6C1ZgPw8-113" target="_qgD7AP_xgWN6C1ZgPw8-115">
          <mxGeometry relative="1" as="geometry" />
        </mxCell>
        <mxCell id="_qgD7AP_xgWN6C1ZgPw8-112" style="edgeStyle=orthogonalEdgeStyle;rounded=0;orthogonalLoop=1;jettySize=auto;html=1;" edge="1" parent="1" source="_qgD7AP_xgWN6C1ZgPw8-113" target="_qgD7AP_xgWN6C1ZgPw8-119">
          <mxGeometry relative="1" as="geometry" />
        </mxCell>
        <mxCell id="_qgD7AP_xgWN6C1ZgPw8-113" value="Partitioner" style="rounded=0;whiteSpace=wrap;html=1;" vertex="1" parent="1">
          <mxGeometry x="1330" y="400" width="120" height="60" as="geometry" />
        </mxCell>
        <mxCell id="_qgD7AP_xgWN6C1ZgPw8-114" style="edgeStyle=orthogonalEdgeStyle;rounded=0;orthogonalLoop=1;jettySize=auto;html=1;exitX=0.5;exitY=1;exitDx=0;exitDy=0;entryX=0.5;entryY=0;entryDx=0;entryDy=0;" edge="1" parent="1" source="_qgD7AP_xgWN6C1ZgPw8-115" target="_qgD7AP_xgWN6C1ZgPw8-109">
          <mxGeometry relative="1" as="geometry">
            <mxPoint x="1390" y="579.9999999999998" as="targetPoint" />
          </mxGeometry>
        </mxCell>
        <mxCell id="_qgD7AP_xgWN6C1ZgPw8-115" value="StepExecution" style="rounded=0;whiteSpace=wrap;html=1;" vertex="1" parent="1">
          <mxGeometry x="1190" y="490" width="120" height="60" as="geometry" />
        </mxCell>
        <mxCell id="_qgD7AP_xgWN6C1ZgPw8-116" style="edgeStyle=orthogonalEdgeStyle;rounded=0;orthogonalLoop=1;jettySize=auto;html=1;" edge="1" parent="1" source="_qgD7AP_xgWN6C1ZgPw8-117" target="_qgD7AP_xgWN6C1ZgPw8-109">
          <mxGeometry relative="1" as="geometry" />
        </mxCell>
        <mxCell id="_qgD7AP_xgWN6C1ZgPw8-117" value="StepExecution" style="rounded=0;whiteSpace=wrap;html=1;" vertex="1" parent="1">
          <mxGeometry x="1330" y="490" width="120" height="60" as="geometry" />
        </mxCell>
        <mxCell id="_qgD7AP_xgWN6C1ZgPw8-118" style="edgeStyle=orthogonalEdgeStyle;rounded=0;orthogonalLoop=1;jettySize=auto;html=1;exitX=0.5;exitY=1;exitDx=0;exitDy=0;" edge="1" parent="1" source="_qgD7AP_xgWN6C1ZgPw8-119" target="_qgD7AP_xgWN6C1ZgPw8-109">
          <mxGeometry relative="1" as="geometry" />
        </mxCell>
        <mxCell id="_qgD7AP_xgWN6C1ZgPw8-119" value="StepExecution" style="rounded=0;whiteSpace=wrap;html=1;" vertex="1" parent="1">
          <mxGeometry x="1480" y="490" width="120" height="60" as="geometry" />
        </mxCell>
        <mxCell id="_qgD7AP_xgWN6C1ZgPw8-120" value="JobStep" style="text;html=1;align=center;verticalAlign=middle;whiteSpace=wrap;rounded=0;" vertex="1" parent="1">
          <mxGeometry x="1360" y="187.5" width="60" height="30" as="geometry" />
        </mxCell>
      </root>
    </mxGraphModel>
  </diagram>
</mxfile>
